<svg width="512" height="512" viewBox="0 0 512 512" fill="none" xmlns="http://www.w3.org/2000/svg">
<g clip-path="url(#clip0_2015_32572)">
<path fill-rule="evenodd" clip-rule="evenodd" d="M510.295 226.141C504.348 174.835 483.059 126.524 449.218 87.5401C415.377 48.5564 370.564 20.7187 320.65 7.67509C363.702 21.7734 401.94 47.6806 431.02 82.4527C460.101 117.225 478.856 159.467 485.156 204.379C432.778 161.47 348.068 121.074 268.17 146.168C303.345 178.132 311.69 217.939 274.391 252.21C315.044 184.335 234.199 154.37 193.751 123.175C161.086 97.953 180.67 66.7838 205.886 44.9448C233.559 20.9528 274.596 5.54759 305.137 3.93274C247.23 -7.06363 159.806 4.34285 117.77 46.4828C75.7351 88.6227 104.97 146.45 156.17 192.973C156.17 192.973 91.3511 254.67 53.9751 299.579C16.5991 344.487 103.178 409.978 103.178 409.978C203.582 335.644 280.919 396.726 318.218 469.318C278.563 481.796 236.367 483.846 195.691 475.271C155.015 466.696 117.227 447.785 85.9633 420.356C54.6992 392.927 31.0107 357.904 17.1768 318.656C3.34293 279.407 -0.170831 237.255 6.97355 196.254C-1.69311 232.668 -2.28913 270.54 5.22738 307.209C12.7439 343.878 28.1905 378.454 50.4814 408.506C72.7723 438.557 101.366 463.356 134.254 481.158C167.142 498.961 203.524 509.334 240.844 511.55C278.165 513.767 315.517 507.771 350.275 493.986C385.034 480.2 416.355 458.96 442.037 431.757C467.719 404.553 487.139 372.048 498.931 336.526C510.724 301.003 514.603 263.326 510.295 226.141ZM163.799 247.98L127.959 245.417L182.462 197.1L163.799 247.98Z" fill="url(#paint0_linear_2015_32572)"/>
<path fill-rule="evenodd" clip-rule="evenodd" d="M70.6521 262.699C95.7401 235.4 123.926 207.538 138.646 193.209C100.066 191.979 65.4041 176.266 68.3481 130.46C70.9894 100.482 81.8606 71.8188 99.7593 47.6417C80.9041 61.8502 64.0595 78.5523 49.6857 97.2919C7.72732 152.069 1.19932 237.707 70.6521 262.699Z" fill="url(#paint1_linear_2015_32572)"/>
</g>
<defs>
<linearGradient id="paint0_linear_2015_32572" x1="97.3395" y1="5.04299e-05" x2="525.858" y2="17.2366" gradientUnits="userSpaceOnUse">
<stop stop-color="#70FFDE"/>
<stop offset="1" stop-color="#9852FF"/>
</linearGradient>
<linearGradient id="paint1_linear_2015_32572" x1="10.2774" y1="-85.0532" x2="154.675" y2="-62.9388" gradientUnits="userSpaceOnUse">
<stop stop-color="#70FFDE"/>
<stop offset="1" stop-color="#9852FF"/>
</linearGradient>
<clipPath id="clip0_2015_32572">
<rect width="512" height="512" fill="white"/>
</clipPath>
</defs>
</svg>
